HIERARCHY
ROOT Hips
{
	OFFSET 0.00 0.00 0.00
	CHANNELS 6 Xposition Yposition Zposition Xrotation Yrotation Zrotation
	JOINT LeftUpLeg
	{
		OFFSET 2.94355 0.00000 0.00000
		CHANNELS 3 Xrotation Yrotation Zrotation
		JOINT LeftLeg
		{
			OFFSET 0.00000 -16.73768 0.00000
			CHANNELS 3 Xrotation Yrotation Zrotation
			JOINT LeftFoot
			{
				OFFSET 0.00000 -15.48883 0.00000
				CHANNELS 3 Xrotation Yrotation Zrotation
				JOINT LeftToeBase
				{
					OFFSET 0.00000 -1.60986 6.00809
					CHANNELS 3 Xrotation Yrotation Zrotation
					End Site
					{
						OFFSET 0.00000 0.00000 2.95275
					}
				}
			}
		}
	}
	JOINT RightUpLeg
	{
		OFFSET -2.94355 0.00000 0.00000
		CHANNELS 3 Xrotation Yrotation Zrotation
		JOINT RightLeg
		{
			OFFSET 0.00000 -16.73768 0.00000
			CHANNELS 3 Xrotation Yrotation Zrotation
			JOINT RightFoot
			{
				OFFSET 0.00000 -15.48883 0.00000
				CHANNELS 3 Xrotation Yrotation Zrotation
				JOINT RightToeBase
				{
					OFFSET 0.00000 -1.60986 6.00809
					CHANNELS 3 Xrotation Yrotation Zrotation
					End Site
					{
						OFFSET 0.00000 0.00000 2.95275
					}
				}
			}
		}
	}
	JOINT Spine
	{
		OFFSET 0.00000 0.03937 0.00000
		CHANNELS 3 Xrotation Yrotation Zrotation
		JOINT Spine1
		{
			OFFSET 0.00000 11.10029 0.00000
			CHANNELS 3 Xrotation Yrotation Zrotation
			JOINT Neck
			{
				OFFSET 0.00000 8.89215 0.00000
				CHANNELS 3 Xrotation Yrotation Zrotation
				JOINT Head
				{
					OFFSET 0.00000 5.25932 0.00000
					CHANNELS 3 Xrotation Yrotation Zrotation
					End Site
					{
						OFFSET 0.00000 4.52755 0.00000
					}
				}
			}
			JOINT LeftShoulder
			{
				OFFSET 0.00000 8.89215 0.00000
				CHANNELS 3 Xrotation Yrotation Zrotation
				JOINT LeftArm
				{
					OFFSET 6.13318 -0.00002 0.00000
					CHANNELS 3 Xrotation Yrotation Zrotation
					JOINT LeftForeArm
					{
						OFFSET 10.77766 -0.00004 0.00000
						CHANNELS 3 Xrotation Yrotation Zrotation
						JOINT LeftHand
						{
							OFFSET 9.97045 -0.00004 0.00000
							CHANNELS 3 Xrotation Yrotation Zrotation
							JOINT LeftHandThumb
							{
								OFFSET 0.00000 0.00000 0.00000
								CHANNELS 3 Xrotation Yrotation Zrotation
								End Site
								{
									OFFSET 0.00000 0.00000 3.93700
								}
							}
							JOINT L_Wrist_End
							{
								OFFSET 3.93700 -0.00001 0.00000
								CHANNELS 3 Xrotation Yrotation Zrotation
							}
						}
					}
				}
			}
			JOINT RightShoulder
			{
				OFFSET 0.00000 8.89215 0.00000
				CHANNELS 3 Xrotation Yrotation Zrotation
				JOINT RightArm
				{
					OFFSET -6.13318 -0.00002 0.00000
					CHANNELS 3 Xrotation Yrotation Zrotation
					JOINT RightForeArm
					{
						OFFSET -10.77766 -0.00004 0.00000
						CHANNELS 3 Xrotation Yrotation Zrotation
						JOINT RightHand
						{
							OFFSET -9.97045 -0.00004 0.00000
							CHANNELS 3 Xrotation Yrotation Zrotation
							JOINT RightHandThumb
							{
								OFFSET 0.00000 0.00000 0.00000
								CHANNELS 3 Xrotation Yrotation Zrotation
								End Site
								{
									OFFSET 0.00000 0.00000 3.93700
								}
							}
							JOINT R_Wrist_End
							{
								OFFSET -3.93700 -0.00001 0.00000
								CHANNELS 3 Xrotation Yrotation Zrotation
							}
						}
					}
				}
			}
		}
	}
}
MOTION
Frames: 11
Frame Time: 0.008333
 -6.9636 31.4337 -1.8379 -125.2987 87.6700 130.4131 -23.9673 0.6771 -5.1566 56.2312 -0.0000 0.0000 -21.3818 6.4601 -40.2193 -14.0119 -0.0000 0.0000 -32.8309 -3.0344 -11.4958 21.8434 0.0000 0.0000 11.5473 15.4358 13.5930 -1.8448 0.0000 0.0000 -6.2477 2.1553 -10.5489 -2.4614 4.6932 2.1067 8.7979 41.9551 -2.4244 37.5425 -44.8224 32.3519 -17.0937 -16.3582 -0.2145 -27.2867 -29.4528 -89.6590 -0.0001 -30.8195 -0.0000 -28.6343 11.8306 3.8546 0.0000 -0.0000 -0.0000 0.0000 -0.0000 -0.0000 -10.7176 16.4418 -3.7113 -36.9732 17.8324 72.5709 -0.0002 35.7905 0.0000 -9.4755 3.9654 -34.0083 0.0000 -0.0000 0.0000 0.0000 -0.0000 0.0000
 -6.4959 31.3951 -1.7644 -122.2897 87.8354 127.2378 -23.0195 0.8631 -4.7379 56.2325 -0.0000 0.0000 -22.7074 6.3676 -40.0959 -13.7755 -0.0000 -0.0000 -32.9562 -2.3632 -10.9648 23.9972 -0.0000 0.0000 9.0334 14.4688 13.6996 -2.3399 0.0000 0.0000 -6.5280 2.3057 -10.2613 -2.5606 4.7350 2.1056 9.0892 42.0887 -2.7210 38.0787 -44.6157 32.6013 -16.6174 -16.0964 -0.5499 -26.6585 -30.0807 -89.0768 -0.0001 -31.1423 -0.0000 -28.6882 11.7521 4.0962 -0.0000 0.0000 -0.0000 -0.0000 0.0000 -0.0000 -10.2274 16.3829 -3.6143 -36.6324 17.9261 72.7392 -0.0002 36.2555 0.0001 -9.5491 4.0078 -34.4338 -0.0000 -0.0000 -0.0000 -0.0000 -0.0000 -0.0000
 -6.0106 31.3625 -1.6924 -126.4963 87.9576 131.4296 -22.0145 0.6812 -4.6533 55.9102 -0.0000 0.0000 -24.1829 6.5336 -40.1351 -13.1635 0.0000 0.0000 -32.8997 -2.0504 -10.6742 25.8726 -0.0000 0.0000 5.4395 13.4358 11.8925 -1.9604 0.0000 0.0000 -6.8296 2.3413 -10.1745 -2.9274 4.6843 2.0888 9.6380 42.1549 -2.7181 37.7473 -44.7199 32.1302 -16.1742 -15.6952 -0.8068 -25.9856 -30.3688 -88.9048 -0.0001 -31.3826 -0.0000 -28.5854 11.5585 4.1911 0.0000 -0.0000 0.0000 0.0000 -0.0000 0.0000 -9.9495 15.9790 -3.4318 -36.2502 17.9978 73.2808 -0.0002 36.4579 0.0001 -9.2103 4.2101 -34.2987 0.0000 0.0000 -0.0000 0.0000 0.0000 -0.0000
 -5.4999 31.3588 -1.6198 -124.2327 87.7333 128.9479 -20.4105 0.0122 -4.5355 55.2430 -0.0000 0.0000 -25.5493 7.0259 -40.5286 -12.9424 -0.0000 0.0000 -32.3337 -1.9950 -10.2747 27.5435 0.0000 -0.0000 2.4717 12.5730 10.9222 -1.5349 -0.0000 -0.0000 -7.1763 2.4503 -9.8494 -2.4357 4.6666 2.0116 9.6173 42.1862 -2.8865 38.1563 -44.5470 32.3452 -16.1842 -15.2998 -1.3369 -25.1053 -30.5587 -88.5633 -0.0001 -31.6805 -0.0000 -28.0580 11.2951 4.4799 0.0000 -0.0000 0.0000 0.0000 -0.0000 0.0000 -9.9837 15.6320 -3.0378 -35.6490 18.1758 73.4664 -0.0002 36.9835 0.0001 -9.1513 4.3123 -34.5569 0.0000 0.0000 -0.0000 0.0000 0.0000 -0.0000
 -5.0481 31.3548 -1.5439 -131.4946 87.8856 136.1700 -19.5555 -0.5626 -4.5542 54.7185 -0.0000 0.0000 -26.4539 7.3852 -41.0260 -12.8118 -0.0000 -0.0000 -32.2617 -1.6172 -10.0547 28.7224 -0.0000 0.0000 0.5082 11.5269 12.4672 -1.2021 0.0000 0.0000 -7.4049 2.4682 -9.8024 -2.9815 4.6178 2.0454 10.2126 42.1587 -2.8292 37.4980 -44.7765 31.6985 -15.4997 -15.0335 -1.3614 -24.5472 -30.8188 -88.4707 -0.0001 -32.0250 -0.0000 -27.9295 11.0727 4.5251 0.0000 -0.0000 0.0000 0.0000 -0.0000 0.0000 -9.4493 15.2291 -2.8782 -35.2849 18.3146 73.8398 -0.0002 37.3044 0.0001 -9.2390 4.1361 -34.6014 -0.0000 -0.0000 -0.0000 -0.0000 -0.0000 -0.0000
 -4.6164 31.3612 -1.4695 -140.9633 87.9548 145.5665 -18.8101 -1.2219 -4.6017 54.2625 -0.0000 0.0000 -27.1880 7.8106 -41.0519 -12.6325 -0.0000 -0.0000 -32.1774 -1.0273 -9.8215 29.8524 -0.0000 0.0000 -1.2449 10.5632 13.6437 -1.0017 -0.0000 0.0000 -7.6235 2.5017 -9.7272 -3.4246 4.5853 2.0642 10.7479 42.0638 -2.8845 36.8482 -44.9624 31.2345 -15.1716 -14.6647 -1.6559 -23.7775 -31.1363 -88.3888 -0.0001 -32.3444 -0.0000 -27.5551 10.7611 5.0323 -0.0000 -0.0000 0.0000 -0.0000 -0.0000 0.0000 -9.2979 14.7632 -2.5778 -34.4976 18.5960 74.0473 -0.0002 37.7541 0.0001 -9.0895 3.9436 -34.1150 -0.0000 -0.0000 0.0000 -0.0000 -0.0000 0.0000
 -4.2109 31.3914 -1.3950 -151.8704 87.9050 156.3873 -18.1924 -2.0480 -4.6867 53.8286 -0.0000 0.0000 -27.6434 8.3291 -41.0174 -12.6515 0.0000 0.0000 -32.1978 -0.3355 -9.5620 31.1460 -0.0000 0.0000 -2.7549 9.5774 14.0551 -0.8745 0.0000 0.0000 -7.8233 2.5025 -9.6527 -3.7669 4.5252 2.0770 11.2743 41.9420 -2.9794 35.9999 -45.1749 30.7084 -15.0268 -14.2639 -2.0652 -22.8590 -31.4784 -88.2129 -0.0001 -32.6660 -0.0000 -27.2049 10.5322 5.3874 -0.0000 -0.0000 0.0000 -0.0000 -0.0000 0.0000 -9.2802 14.2427 -2.1800 -33.6180 18.9806 74.1652 -0.0002 38.2456 0.0001 -9.2858 4.1123 -33.8445 -0.0000 0.0000 -0.0000 -0.0000 0.0000 -0.0000
 -3.8350 31.4493 -1.3227 -163.3934 87.7141 167.7692 -17.7522 -2.9400 -4.7463 53.4810 -0.0000 0.0000 -27.8063 8.8635 -40.6329 -12.8757 0.0000 -0.0000 -32.3985 0.1836 -9.2977 32.5472 0.0000 -0.0000 -3.8429 8.8265 13.2744 -1.0541 0.0000 -0.0000 -8.0174 2.4677 -9.5633 -4.0153 4.4281 2.0935 11.5313 41.8438 -2.8950 35.2236 -45.4307 30.0866 -15.2271 -13.7560 -2.7152 -21.6271 -31.9416 -87.8920 -0.0001 -32.9974 -0.0000 -26.9286 10.4171 5.6978 0.0000 0.0000 -0.0000 0.0000 0.0000 -0.0000 -9.3871 13.6360 -1.6164 -32.6788 19.5049 74.1312 -0.0002 38.7682 0.0001 -9.0071 3.9079 -33.2535 -0.0000 -0.0000 0.0000 -0.0000 -0.0000 0.0000
 -3.5129 31.5268 -1.2365 179.1858 87.2965 -175.3338 -17.8984 -4.0113 -4.4035 53.3595 0.0000 0.0000 -27.6144 9.2270 -40.8196 -13.2325 -0.0000 0.0000 -32.9996 0.3083 -8.7326 33.8448 -0.0000 0.0000 -4.5053 8.0702 12.0204 -0.8929 -0.0000 0.0000 -8.5426 2.3198 -9.2196 -4.0903 4.0876 2.2456 11.3022 41.9363 -2.9298 35.3734 -45.4296 29.9646 -15.3338 -13.3608 -3.5937 -20.1863 -32.4974 -86.9136 -0.0001 -33.5980 -0.0000 -26.6037 10.2271 5.7615 -0.0000 -0.0000 0.0000 -0.0000 -0.0000 0.0000 -9.0073 13.1493 -0.9682 -32.1576 20.7337 73.6431 -0.0002 39.3273 0.0001 -9.2364 3.8503 -33.3962 -0.0000 -0.0000 0.0000 -0.0000 -0.0000 0.0000
 -3.1760 31.6106 -1.1730 173.0991 87.1709 -169.2760 -17.5089 -4.3841 -4.3481 53.0941 0.0000 -0.0000 -27.1371 9.4156 -41.1374 -13.5925 0.0000 -0.0000 -33.0074 0.8020 -8.4786 34.6990 0.0000 0.0000 -5.1329 7.5034 11.2585 -1.0995 0.0000 0.0000 -8.6284 2.3089 -9.1817 -4.2969 4.0469 2.2552 11.4712 41.9682 -2.7927 34.3016 -45.7605 28.9960 -15.2250 -12.9585 -3.7699 -19.2491 -33.1175 -86.6675 -0.0001 -33.8188 -0.0000 -26.7579 9.8747 5.9642 0.0000 -0.0000 -0.0000 0.0000 -0.0000 -0.0000 -8.7138 12.7310 -0.7101 -31.6198 20.8387 73.8400 -0.0002 39.9575 0.0001 -9.6112 4.3257 -33.6219 0.0000 0.0000 -0.0000 0.0000 0.0000 -0.0000
 -2.8613 31.7092 -1.1178 167.6941 86.9406 -163.9261 -17.2235 -4.7104 -4.2627 52.8873 -0.0000 0.0000 -26.4748 9.5469 -41.6166 -14.0541 0.0000 -0.0000 -32.9072 0.8348 -8.3519 35.1459 -0.0000 0.0000 -5.6180 7.2833 10.6244 -1.1734 0.0000 -0.0000 -8.7051 2.2762 -9.1201 -4.4919 3.9837 2.2569 11.3008 42.0452 -2.6802 34.1182 -45.8887 28.6543 -15.0301 -12.6310 -4.0947 -18.3883 -33.6297 -86.2870 -0.0001 -34.0182 -0.0000 -26.8305 9.6486 5.8679 -0.0000 0.0000 0.0000 -0.0000 0.0000 0.0000 -8.4314 12.3578 -0.3476 -30.9516 21.0194 73.8252 -0.0002 40.6737 0.0001 -9.3388 4.2726 -33.6319 -0.0000 -0.0000 -0.0000 -0.0000 -0.0000 -0.0000
